<svg width="14" height="12" viewBox="0 0 14 12" fill="none" xmlns="http://www.w3.org/2000/svg">
<path d="M0 0.857143C0 0.629814 0.0921874 0.411797 0.256282 0.251051C0.420376 0.090306 0.642936 0 0.875 0H13.125C13.3571 0 13.5796 0.090306 13.7437 0.251051C13.9078 0.411797 14 0.629814 14 0.857143C14 1.08447 13.9078 1.30249 13.7437 1.46323C13.5796 1.62398 13.3571 1.71429 13.125 1.71429H0.875C0.642936 1.71429 0.420376 1.62398 0.256282 1.46323C0.0921874 1.30249 0 1.08447 0 0.857143ZM0 6C0 5.77267 0.0921874 5.55465 0.256282 5.39391C0.420376 5.23316 0.642936 5.14286 0.875 5.14286H13.125C13.3571 5.14286 13.5796 5.23316 13.7437 5.39391C13.9078 5.55465 14 5.77267 14 6C14 6.22733 13.9078 6.44535 13.7437 6.60609C13.5796 6.76684 13.3571 6.85714 13.125 6.85714H0.875C0.642936 6.85714 0.420376 6.76684 0.256282 6.60609C0.0921874 6.44535 0 6.22733 0 6ZM0.875 10.2857C0.642936 10.2857 0.420376 10.376 0.256282 10.5368C0.0921874 10.6975 0 10.9155 0 11.1429C0 11.3702 0.0921874 11.5882 0.256282 11.7489C0.420376 11.9097 0.642936 12 0.875 12H13.125C13.3571 12 13.5796 11.9097 13.7437 11.7489C13.9078 11.5882 14 11.3702 14 11.1429C14 10.9155 13.9078 10.6975 13.7437 10.5368C13.5796 10.376 13.3571 10.2857 13.125 10.2857H0.875Z" fill="#FDBCC4"/>
</svg>
