<svg width="248" height="78" viewBox="0 0 248 78" fill="none" xmlns="http://www.w3.org/2000/svg">
<path fill-rule="evenodd" clip-rule="evenodd" d="M0.00121233 22.9757C0.00121233 27.2751 0.496567 29.2245 2.12407 32.9041C2.34256 33.4004 2.48285 33.6274 2.73486 34.0791C2.95831 34.4819 3.09854 34.9136 3.46104 35.1517C3.80243 34.5732 4.32133 33.2346 5.21391 31.7826C8.09897 27.0815 14.6115 23.6645 20.7627 23.6645C23.1103 23.6645 24.4249 24.0094 25.8898 24.0094C26.41 24.0094 29.6339 21.2544 31.8288 20.2563C32.2533 20.0638 32.4333 19.9158 32.8095 19.7589C35.2948 18.7241 38.7944 17.8062 42.4231 17.8062H51.9076C51.8976 17.3867 51.5264 16.2707 51.3812 15.8645C50.5345 13.5012 48.2379 9.72031 46.3013 8.01234C45.4609 7.27129 46.1312 7.66628 44.896 6.74387L42.7359 5.00368C38.1774 1.94157 33.1285 0.250359 27.927 0H25.2108C21.9433 0.156891 18.6387 0.878975 15.3787 2.18082C12.5967 3.2935 9.92762 4.94247 7.78616 6.86407C3.24008 10.9443 0.00121233 17.1786 0.00121233 22.9757ZM48.8301 2.41335C49.411 3.19 51.735 4.78119 52.933 6.20097C53.1775 6.48916 53.3761 6.73495 53.6455 7.05762C55.9694 9.8282 58.5703 14.5894 58.5703 17.8062H85.1007C84.4501 15.3026 83.0163 12.7792 81.642 10.9121C81.4434 10.6417 81.282 10.458 81.0536 10.1754C79.2151 7.8888 76.5038 5.49884 73.7814 4.05792C71.8075 3.012 71.5145 2.8084 69.0987 1.93606C63.1089 -0.22477 56.1048 -0.144768 50.0219 1.98713C49.5451 2.15403 49.2385 2.22086 48.8301 2.41335ZM59.0842 77.0798C63.0431 77.0798 66.0361 76.5825 69.7021 75.225C75.9762 72.9017 80.9767 68.5601 83.7351 62.9889C84.3087 61.8306 84.9232 60.452 85.2286 59.2737C84.5892 59.2737 84.5234 59.1623 83.8245 59.1545L75.8732 59.0433C75.147 59.0433 74.4195 59.0466 73.6933 59.0433C72.7945 59.04 72.4133 59.1546 71.6486 59.1635C70.0161 59.1824 68.848 59.0444 67.2863 59.0444C65.7842 59.0444 64.7699 59.1601 63.3137 59.159C61.8339 59.159 60.8334 59.0444 59.3399 59.0444C57.8763 59.0444 54.4723 59.2391 53.3228 59.1535C51.3787 59.0088 52.9454 59.0088 51.0013 59.1535L45.2411 59.159C41.0079 59.159 36.4158 58.6572 33.5779 57.4366C33.6028 58.4592 34.3973 60.8046 34.7697 61.6536C36.0509 64.5777 37.9713 67.5464 40.4678 69.7573C41.3368 70.5273 42.6316 71.6733 43.6509 72.3031C45.5366 73.467 46.9692 74.3983 49.2509 75.2083C52.2328 76.2676 55.7174 77.0798 59.0829 77.0798M26.0152 76.2753C29.238 76.2753 31.902 76.0729 34.8442 75.2284C35.5618 75.0225 36.4084 74.711 37.1657 74.5518L33.6711 71.3662C33.3185 71.0513 33.2242 70.8822 32.9039 70.5617L30.6731 67.7356C28.7824 64.6223 27.0009 60.6589 27.0418 56.8602C27.0493 56.1481 26.9264 55.9745 26.9053 55.3692C26.8656 54.222 27.3522 54.0596 26.3019 52.928C23.1624 49.5488 21.2035 47.1565 20.1731 42.57C19.2122 38.2951 19.7746 35.2997 21.0694 31.2919C21.2804 30.6398 21.7261 30.0535 21.7856 29.407C19.0955 29.6073 14.3806 31.6023 12.0256 33.0655L7.85443 36.2177L6.37714 37.7654C3.42255 40.9878 1.46357 45.1882 0.820517 49.3285C0.558577 51.0209 0.623177 52.8335 0.63435 54.5681C0.650488 56.9582 2.15757 61.0662 3.33071 63.1803C4.19971 64.7469 5.1432 66.0243 6.33372 67.3807C7.83336 69.0897 9.97601 70.8344 11.9511 72.1096C12.2826 72.3232 12.5346 72.43 12.8921 72.6447C13.2583 72.865 13.4669 73.0041 13.8393 73.1743L15.9746 74.1312C16.779 74.4683 17.3302 74.6297 18.1794 74.9134L20.5306 75.5621C22.0997 75.8915 24.1481 76.2753 26.0152 76.2753Z" fill="#FF2E17"/>
<path fill-rule="evenodd" clip-rule="evenodd" d="M139.188 46.8691H144.186V35.9559L146.619 40.322C147.102 41.2979 148.059 42.6309 148.158 42.9625H151.62C152.707 41.506 154.943 36.4934 155.464 35.9559V46.868H160.976L160.969 39.5232C160.77 37.3635 160.975 38.3326 160.975 36.2997V30.2112H154.439C154.136 31.3762 150.215 37.8542 150.081 38.3671C149.502 37.7707 148.094 35.0335 147.689 34.3092L145.98 31.1302C145.816 30.832 145.62 30.2112 145.211 30.2112H139.188V46.8691ZM216.214 46.8691H221.597V30.2123H216.214V46.8691ZM66.2619 42.1591C66.2619 43.3841 66.4108 45.8009 66.134 46.868H71.7726C71.7726 45.5217 71.6447 44.5904 71.6447 43.3075C71.6447 42.3862 71.5925 40.7582 72.0978 40.0372L78.1299 31.7733C78.4712 31.3149 79.1106 30.5817 79.2062 30.2112H73.3094C72.9593 30.683 72.6552 31.2125 72.3101 31.7266C71.7961 32.4888 69.3555 35.9682 69.209 36.5301C68.7 36.2241 65.404 31.1225 64.7237 30.2112H58.7004C58.863 30.841 63.1049 36.3064 63.8014 37.2422L65.8584 40.1073C66.2172 40.5969 66.2619 41.3813 66.2619 42.1591ZM234.286 38.3682C233.228 39.7835 227.264 46.345 227.109 46.8691H231.082C233.47 46.8691 232.849 47.0371 233.921 45.7375C234.806 44.6627 235.947 43.1483 236.952 42.1357C237.253 41.8331 237.238 42.0011 237.362 41.5839C237.869 41.8876 238.164 42.3517 238.551 42.8157C238.97 43.3141 241.579 46.3985 241.719 46.868H248C247.282 45.653 241.011 38.8846 240.823 38.2537L242.576 36.2641C243.045 35.7445 247.744 30.6385 247.872 30.2112C246.981 30.2112 242.881 30.1467 242.207 30.3036C241.728 30.4148 241.678 30.5739 241.117 31.1647L237.747 35.1514C237.356 35.058 237.464 35.1037 237.208 34.8299L233.836 30.7296C233.547 30.3714 233.73 30.4438 233.253 30.3325C232.383 30.1322 228.317 30.2112 227.237 30.2112C227.355 30.6095 230.353 33.8964 230.715 34.3315L234.286 38.3682ZM169.049 46.8691H184.173V43.8816C184.173 43.6179 184.084 43.5366 183.789 43.5366H174.561V39.6311L180.201 39.5165C181.447 39.5165 182.177 39.6311 183.404 39.6311V36.2997H174.561V33.429H184.173V30.2112H169.05L169.049 46.8691ZM33.8359 38.2537C33.8359 41.575 34.9855 44.1653 38.1971 45.831C41.5787 47.5846 46.2303 47.441 49.9756 46.7456L52.6397 46.147C53.0519 46.0469 53.3176 46.117 53.3176 45.7197V37.6783H47.9335V44.1118C45.3129 44.1118 43.7152 44.0073 41.9499 43.1573C39.287 41.8777 38.9643 37.8053 39.9847 35.838C40.3037 35.2238 40.7792 34.8388 41.2981 34.3737C41.8071 33.9175 42.4092 33.6505 43.1515 33.3924C47.8491 31.7545 52.2052 35.176 53.1884 35.3807C53.2021 34.8355 53.3188 34.6908 53.3176 33.4279V31.2459C52.7229 31.1224 52.2351 30.9033 51.6032 30.7142C50.9477 30.5183 50.5144 30.417 49.8043 30.2579C46.8932 29.6048 43.5115 29.5213 40.6426 30.3402C36.793 31.4373 33.8359 34.0611 33.8359 38.2537ZM126.499 37.6783C126.499 39.9204 126.456 42.287 123.855 43.5789C122.089 44.4556 117.803 44.2843 116.711 40.7082C116.107 38.7321 116.469 36.1328 117.505 34.7876C118.625 33.3377 120.721 32.5667 123.216 33.2677C125.061 33.7862 126.499 35.5576 126.499 37.6783ZM110.735 38.5975C110.735 40.3577 111.363 42.2137 112.373 43.5623L114.757 45.6763C118.631 47.9873 126.062 47.7959 129.353 44.8306C131.634 42.7755 132.138 41.2857 132.138 38.138C132.138 36.2164 131.478 34.4683 130.313 33.1131C130.282 33.0786 130.057 32.8438 130.014 32.806C127.839 30.8733 125.5 29.7528 121.5 29.7528C119.806 29.7528 118.368 29.9686 117.061 30.3681C113.231 31.5408 110.735 34.4727 110.735 38.5975ZM196.99 43.767C196.99 42.1391 196.862 40.9252 196.862 39.2873V33.3133C201.926 33.3133 205.449 33.7317 205.449 39.057C205.449 39.9694 205.033 40.7549 204.683 41.358C203.364 43.6278 200.119 43.767 196.99 43.767ZM191.478 46.868C195.08 46.868 201.322 47.1496 204.453 46.3206C214.19 43.7437 213.445 30.2112 200.579 30.2112H191.479L191.478 46.868ZM84.9738 30.5561V46.868H89.9718V35.7256C90.3305 35.9603 90.7713 36.6446 91.0729 37.0363C93.1039 39.6667 95.5855 43.1004 97.6797 45.5884C97.8883 45.8365 98.0112 45.9778 98.2285 46.2448C98.3191 46.3572 98.406 46.4863 98.4966 46.5809C98.6828 46.7756 98.5835 46.868 98.9435 46.868H103.814V30.2112H98.9435V39.6311L96.0721 36.1173C95.3806 35.2227 91.7482 30.2112 91.1263 30.2112H85.3586C85.0632 30.2112 84.9738 30.2912 84.9738 30.5561Z" fill="#09090D"/>
</svg>
