<svg width="89" height="89" viewBox="0 0 89 89" fill="none" xmlns="http://www.w3.org/2000/svg">
<circle cx="44.5007" cy="44.5007" r="43.0007" stroke="#FDBCC4" stroke-width="3"/>
<circle cx="44.5023" cy="44.5013" r="35.6741" fill="#F8F6FB"/>
<path fill-rule="evenodd" clip-rule="evenodd" d="M45.4747 61.1907C47.6791 59.1905 49.7192 57.0164 51.5755 54.6894C55.4855 49.777 57.8641 44.9336 58.0251 40.6268C58.0888 38.8765 57.799 37.1313 57.1732 35.4955C56.5473 33.8597 55.5982 32.3668 54.3824 31.106C53.1667 29.8452 51.7093 28.8423 50.0973 28.1574C48.4853 27.4724 46.7518 27.1194 45.0003 27.1194C43.2489 27.1194 41.5154 27.4724 39.9034 28.1574C38.2914 28.8423 36.834 29.8452 35.6183 31.106C34.4025 32.3668 33.4534 33.8597 32.8275 35.4955C32.2017 37.1313 31.9119 38.8765 31.9756 40.6268C32.1386 44.9336 34.5191 49.777 38.4271 54.6894C40.2834 57.0164 42.3235 59.1905 44.5279 61.1907C44.74 61.3824 44.8978 61.5217 45.0013 61.6086L45.4747 61.1907ZM43.5868 63.4237C43.5868 63.4237 29.668 51.7013 29.668 40.1668C29.668 36.1002 31.2834 32.2001 34.159 29.3245C37.0346 26.449 40.9346 24.8335 45.0013 24.8335C49.068 24.8335 52.968 26.449 55.8436 29.3245C58.7192 32.2001 60.3346 36.1002 60.3346 40.1668C60.3346 51.7013 46.4158 63.4237 46.4158 63.4237C45.6415 64.1367 44.3669 64.129 43.5868 63.4237ZM45.0013 45.5335C46.4246 45.5335 47.7897 44.9681 48.7961 43.9616C49.8026 42.9552 50.368 41.5902 50.368 40.1668C50.368 38.7435 49.8026 37.3785 48.7961 36.372C47.7897 35.3656 46.4246 34.8002 45.0013 34.8002C43.578 34.8002 42.2129 35.3656 41.2065 36.372C40.2 37.3785 39.6346 38.7435 39.6346 40.1668C39.6346 41.5902 40.2 42.9552 41.2065 43.9616C42.2129 44.9681 43.578 45.5335 45.0013 45.5335ZM45.0013 47.8335C42.968 47.8335 41.0179 47.0258 39.5801 45.588C38.1424 44.1502 37.3346 42.2002 37.3346 40.1668C37.3346 38.1335 38.1424 36.1835 39.5801 34.7457C41.0179 33.3079 42.968 32.5002 45.0013 32.5002C47.0346 32.5002 48.9847 33.3079 50.4225 34.7457C51.8602 36.1835 52.668 38.1335 52.668 40.1668C52.668 42.2002 51.8602 44.1502 50.4225 45.588C48.9847 47.0258 47.0346 47.8335 45.0013 47.8335Z" fill="#FDBCC4"/>
</svg>
