<svg width="89" height="89" viewBox="0 0 89 89" fill="none" xmlns="http://www.w3.org/2000/svg">
<circle cx="44.5007" cy="44.5007" r="43.0007" stroke="#FDBCC4" stroke-width="3"/>
<circle cx="44.5023" cy="44.5013" r="35.6741" fill="#F8F6FB"/>
<path d="M59.3737 64.1667C60.1362 64.1667 60.8675 63.8638 61.4066 63.3246C61.9458 62.7854 62.2487 62.0542 62.2487 61.2917V54.5833C62.2487 53.8208 61.9458 53.0896 61.4066 52.5504C60.8675 52.0112 60.1362 51.7083 59.3737 51.7083C57.1312 51.7083 54.927 51.3633 52.8187 50.6542C52.3146 50.4951 51.7766 50.477 51.263 50.6021C50.7495 50.7271 50.2799 50.9904 49.9054 51.3633L47.1454 54.1233C42.3772 51.5213 38.4582 47.6024 35.8562 42.8342L38.597 40.0933C39.3829 39.3458 39.6704 38.2342 39.3254 37.1608C38.6354 35.0717 38.2904 32.8675 38.2904 30.625C38.2904 29.8625 37.9875 29.1312 37.4483 28.5921C36.9091 28.0529 36.1779 27.75 35.4154 27.75H28.707C27.9445 27.75 27.2133 28.0529 26.6741 28.5921C26.1349 29.1312 25.832 29.8625 25.832 30.625C25.832 49.1208 40.8779 64.1667 59.3737 64.1667ZM28.707 29.6667H35.4154C35.6695 29.6667 35.9133 29.7676 36.093 29.9474C36.2727 30.1271 36.3737 30.3708 36.3737 30.625C36.3737 33.0783 36.757 35.4742 37.5045 37.755C37.6004 38.0233 37.5812 38.4067 37.2745 38.7133L33.4987 42.47C36.6612 48.6608 41.2995 53.2992 47.5095 56.5L51.247 52.7242C51.5154 52.4558 51.8795 52.3792 52.2245 52.475C54.5245 53.2417 56.9204 53.625 59.3737 53.625C59.6279 53.625 59.8716 53.726 60.0513 53.9057C60.2311 54.0854 60.332 54.3292 60.332 54.5833V61.2917C60.332 61.5458 60.2311 61.7896 60.0513 61.9693C59.8716 62.149 59.6279 62.25 59.3737 62.25C41.932 62.25 27.7487 48.0667 27.7487 30.625C27.7487 30.3708 27.8497 30.1271 28.0294 29.9474C28.2091 29.7676 28.4529 29.6667 28.707 29.6667Z" fill="#FDBCC4"/>
</svg>
