<svg width="89" height="89" viewBox="0 0 89 89" fill="none" xmlns="http://www.w3.org/2000/svg">
<circle cx="44.5007" cy="44.5007" r="43.0007" stroke="#FDBCC4" stroke-width="3"/>
<circle cx="44.5023" cy="44.5013" r="35.6741" fill="#F8F6FB"/>
<path d="M31.582 31.5835H56.4987C58.0237 31.5835 59.4862 32.1893 60.5646 33.2676C61.6429 34.346 62.2487 35.8085 62.2487 37.3335V54.5835C62.2487 56.1085 61.6429 57.571 60.5646 58.6494C59.4862 59.7277 58.0237 60.3335 56.4987 60.3335H31.582C30.057 60.3335 28.5945 59.7277 27.5162 58.6494C26.4378 57.571 25.832 56.1085 25.832 54.5835V37.3335C25.832 35.8085 26.4378 34.346 27.5162 33.2676C28.5945 32.1893 30.057 31.5835 31.582 31.5835ZM31.582 33.5002C30.6237 33.5002 29.7804 33.826 29.1287 34.401L44.0404 44.0418L58.952 34.401C58.3004 33.826 57.457 33.5002 56.4987 33.5002H31.582ZM44.0404 46.361L27.9979 35.9535C27.8445 36.3752 27.7487 36.8543 27.7487 37.3335V54.5835C27.7487 55.6002 28.1526 56.5752 28.8715 57.2941C29.5903 58.013 30.5654 58.4168 31.582 58.4168H56.4987C57.5154 58.4168 58.4904 58.013 59.2093 57.2941C59.9282 56.5752 60.332 55.6002 60.332 54.5835V37.3335C60.332 36.8543 60.2362 36.3752 60.0829 35.9535L44.0404 46.361Z" fill="#FDBCC4"/>
</svg>
